<svg xmlns="http://www.w3.org/2000/svg" xmlns:xlink="http://www.w3.org/1999/xlink" width="500" zoomAndPan="magnify" viewBox="0 0 375 374.999991" height="500" preserveAspectRatio="xMidYMid meet" version="1.0"><defs><clipPath id="13f09647f0"><path d="M 51.960938 64 L 310 64 L 310 322.710938 L 51.960938 322.710938 Z M 51.960938 64 " clip-rule="nonzero"/></clipPath><clipPath id="0aa6670cb1"><path d="M 111 53 L 322.710938 53 L 322.710938 249 L 111 249 Z M 111 53 " clip-rule="nonzero"/></clipPath></defs><rect x="-37.5" width="450" fill="#ffffff" y="-37.499999" height="449.999989" fill-opacity="1"/><rect x="-37.5" width="450" fill="#0e00b0" y="-37.499999" height="449.999989" fill-opacity="1"/><g clip-path="url(#13f09647f0)"><path fill="#fefeff" d="M 293.949219 131.84375 L 273.882812 151.910156 C 279.675781 164.707031 282.890625 178.917969 282.890625 193.875 C 282.890625 250.21875 237.226562 295.886719 180.878906 295.886719 C 124.535156 295.886719 78.871094 250.21875 78.871094 193.875 C 78.871094 137.53125 124.535156 91.867188 180.878906 91.867188 C 194.96875 91.867188 208.371094 94.71875 220.574219 99.882812 L 240.785156 79.667969 C 222.890625 70.257812 202.503906 64.941406 180.875 64.941406 C 109.660156 64.941406 51.933594 122.667969 51.933594 193.882812 C 51.933594 265.097656 109.660156 322.824219 180.875 322.824219 C 252.089844 322.824219 309.816406 265.097656 309.816406 193.882812 C 309.824219 171.394531 304.070312 150.246094 293.949219 131.84375 Z M 293.949219 131.84375 " fill-opacity="1" fill-rule="nonzero"/></g><g clip-path="url(#0aa6670cb1)"><path fill="#fefeff" d="M 170.183594 248.222656 C 168.457031 244.621094 166.992188 241.101562 165.140625 237.800781 C 158.226562 225.5 151.410156 213.136719 144.101562 201.074219 C 140.046875 194.394531 134.828125 188.492188 128.523438 183.722656 C 123.46875 179.894531 118.015625 177.359375 111.089844 179.273438 C 111.378906 178.492188 111.503906 177.921875 111.773438 177.425781 C 114.960938 171.597656 118.597656 166.117188 123.863281 161.914062 C 131.011719 156.214844 138.660156 155.363281 147.035156 159.152344 C 155.675781 163.054688 162.214844 169.457031 168.207031 176.460938 C 173.015625 182.09375 177.394531 188.097656 182.03125 194.015625 C 182.125 193.945312 182.375 193.835938 182.519531 193.644531 C 191.667969 181.574219 200.644531 169.367188 209.988281 157.457031 C 230.363281 131.476562 251.441406 106.0625 274.933594 82.816406 C 283.101562 74.738281 292.039062 67.386719 300.996094 60.164062 C 304.457031 57.378906 308.804688 55.488281 313.015625 53.898438 C 317.691406 52.136719 320.675781 53.5625 322.988281 57.695312 C 322.425781 58.324219 321.84375 59.027344 321.210938 59.679688 C 296.3125 85.402344 273.988281 113.210938 253.882812 142.816406 C 235.226562 170.277344 218.339844 198.808594 202.878906 228.179688 C 201.566406 230.679688 199.902344 232.425781 197.375 233.726562 C 188.316406 238.421875 179.355469 243.3125 170.183594 248.222656 Z M 170.183594 248.222656 " fill-opacity="1" fill-rule="nonzero"/></g></svg>