<svg xmlns="http://www.w3.org/2000/svg" xmlns:xlink="http://www.w3.org/1999/xlink" width="500" zoomAndPan="magnify" viewBox="0 0 375 374.999991" height="500" preserveAspectRatio="xMidYMid meet" version="1.0"><defs><clipPath id="be62e1ab66"><path d="M 5.886719 5.886719 L 369.113281 5.886719 L 369.113281 369.113281 L 5.886719 369.113281 Z M 5.886719 5.886719 " clip-rule="nonzero"/></clipPath><clipPath id="7e9a1bf297"><path d="M 187.5 5.886719 C 87.195312 5.886719 5.886719 87.195312 5.886719 187.5 C 5.886719 287.804688 87.195312 369.113281 187.5 369.113281 C 287.804688 369.113281 369.113281 287.804688 369.113281 187.5 C 369.113281 87.195312 287.804688 5.886719 187.5 5.886719 Z M 187.5 5.886719 " clip-rule="nonzero"/></clipPath><clipPath id="3dad22cf8b"><path d="M 90.519531 82.015625 L 284.769531 82.015625 L 284.769531 292.765625 L 90.519531 292.765625 Z M 90.519531 82.015625 " clip-rule="nonzero"/></clipPath></defs><g clip-path="url(#be62e1ab66)"><g clip-path="url(#7e9a1bf297)"><path fill="#ffe1be" d="M 5.886719 5.886719 L 369.113281 5.886719 L 369.113281 369.113281 L 5.886719 369.113281 Z M 5.886719 5.886719 " fill-opacity="1" fill-rule="nonzero"/></g></g><g clip-path="url(#3dad22cf8b)"><path fill="#f25700" d="M 284.464844 273.925781 L 284.464844 271.792969 C 284.464844 258.710938 281.898438 246.011719 276.839844 234.046875 C 271.953125 222.5 264.964844 212.132812 256.0625 203.230469 C 247.164062 194.332031 236.792969 187.339844 225.246094 182.457031 C 224.488281 182.136719 223.722656 181.824219 222.953125 181.523438 C 224.40625 180.335938 225.804688 179.070312 227.144531 177.730469 C 232.292969 172.585938 236.332031 166.589844 239.15625 159.910156 C 242.085938 152.992188 243.570312 145.648438 243.570312 138.082031 C 243.570312 130.519531 242.085938 123.175781 239.15625 116.253906 C 236.332031 109.578125 232.292969 103.582031 227.144531 98.4375 C 222 93.289062 216.003906 89.25 209.328125 86.425781 C 202.40625 83.5 195.0625 82.015625 187.5 82.015625 C 179.933594 82.015625 172.589844 83.5 165.671875 86.425781 C 158.992188 89.25 153 93.289062 147.851562 98.4375 C 142.707031 103.582031 138.664062 109.578125 135.839844 116.253906 C 132.914062 123.175781 131.429688 130.519531 131.429688 138.082031 C 131.429688 145.648438 132.914062 152.992188 135.839844 159.910156 C 138.664062 166.589844 142.707031 172.585938 147.851562 177.730469 C 149.191406 179.070312 150.59375 180.335938 152.046875 181.523438 C 151.277344 181.824219 150.511719 182.136719 149.753906 182.457031 C 138.207031 187.339844 127.835938 194.332031 118.9375 203.230469 C 110.035156 212.132812 103.042969 222.5 98.160156 234.046875 C 93.101562 246.011719 90.535156 258.710938 90.535156 271.792969 L 90.535156 273.925781 C 90.535156 283.878906 98.175781 292.078125 107.898438 292.976562 L 268.421875 292.808594 L 268.480469 292.804688 C 270.148438 292.628906 271.769531 292.136719 273.25 291.34375 C 279.859375 288.324219 284.464844 281.652344 284.464844 273.925781 Z M 146.175781 155.539062 C 143.835938 150.011719 142.648438 144.136719 142.648438 138.082031 C 142.648438 132.027344 143.835938 126.15625 146.175781 120.625 C 148.433594 115.285156 151.667969 110.488281 155.785156 106.371094 C 159.90625 102.25 164.699219 99.015625 170.042969 96.757812 C 175.570312 94.417969 181.445312 93.234375 187.5 93.234375 C 193.554688 93.234375 199.425781 94.417969 204.957031 96.757812 C 210.296875 99.015625 215.09375 102.25 219.214844 106.371094 C 223.332031 110.488281 226.566406 115.285156 228.824219 120.625 C 231.164062 126.15625 232.347656 132.027344 232.347656 138.082031 C 232.347656 144.136719 231.164062 150.011719 228.824219 155.539062 C 226.566406 160.882812 223.332031 165.679688 219.214844 169.796875 C 215.09375 173.914062 210.296875 177.148438 204.957031 179.40625 C 199.425781 181.746094 193.554688 182.933594 187.5 182.933594 C 181.445312 182.933594 175.570312 181.746094 170.042969 179.40625 C 164.699219 177.148438 159.90625 173.914062 155.785156 169.796875 C 151.667969 165.679688 148.433594 160.882812 146.175781 155.539062 Z M 273.242188 273.925781 C 273.242188 278.289062 269.691406 281.839844 265.328125 281.839844 L 109.671875 281.839844 C 105.304688 281.839844 101.753906 278.289062 101.753906 273.925781 L 101.753906 271.792969 C 101.753906 260.21875 104.023438 248.992188 108.492188 238.417969 C 112.8125 228.207031 118.996094 219.039062 126.867188 211.164062 C 134.742188 203.289062 143.914062 197.105469 154.125 192.789062 C 156.375 191.835938 158.6875 190.972656 160.996094 190.222656 C 161.800781 189.960938 162.621094 189.707031 163.433594 189.46875 C 163.734375 189.382812 164.023438 189.269531 164.296875 189.136719 C 164.753906 189.34375 165.210938 189.546875 165.671875 189.742188 C 172.589844 192.667969 179.933594 194.152344 187.5 194.152344 C 195.0625 194.152344 202.40625 192.667969 209.328125 189.742188 C 209.789062 189.546875 210.246094 189.34375 210.703125 189.136719 C 210.976562 189.269531 211.265625 189.382812 211.566406 189.46875 C 214.707031 190.386719 217.839844 191.503906 220.875 192.789062 C 231.085938 197.109375 240.253906 203.289062 248.128906 211.164062 C 256.003906 219.039062 262.1875 228.207031 266.503906 238.417969 C 270.976562 248.988281 273.242188 260.21875 273.242188 271.792969 Z M 273.242188 273.925781 " fill-opacity="1" fill-rule="nonzero"/></g></svg>
