<svg xmlns="http://www.w3.org/2000/svg" xmlns:xlink="http://www.w3.org/1999/xlink" width="500" zoomAndPan="magnify" viewBox="0 0 375 374.999991" height="500" preserveAspectRatio="xMidYMid meet" version="1.0"><defs><clipPath id="1028f0256c"><path d="M 5.886719 5.886719 L 369.113281 5.886719 L 369.113281 369.113281 L 5.886719 369.113281 Z M 5.886719 5.886719 " clip-rule="nonzero"/></clipPath><clipPath id="910d3f7a1a"><path d="M 187.5 5.886719 C 87.195312 5.886719 5.886719 87.195312 5.886719 187.5 C 5.886719 287.804688 87.195312 369.113281 187.5 369.113281 C 287.804688 369.113281 369.113281 287.804688 369.113281 187.5 C 369.113281 87.195312 287.804688 5.886719 187.5 5.886719 Z M 187.5 5.886719 " clip-rule="nonzero"/></clipPath><clipPath id="e789f3a43b"><path d="M 109.707031 83.082031 L 264.957031 83.082031 L 264.957031 291.582031 L 109.707031 291.582031 Z M 109.707031 83.082031 " clip-rule="nonzero"/></clipPath></defs><g clip-path="url(#1028f0256c)"><g clip-path="url(#910d3f7a1a)"><path fill="#ffe1be" d="M 5.886719 5.886719 L 369.113281 5.886719 L 369.113281 369.113281 L 5.886719 369.113281 Z M 5.886719 5.886719 " fill-opacity="1" fill-rule="nonzero"/></g></g><g clip-path="url(#e789f3a43b)"><path fill="#f25700" d="M 260.03125 94.886719 L 259.964844 94.78125 C 254.882812 87.476562 246.464844 83.125 237.453125 83.125 L 133.609375 83.125 C 126.859375 83.125 121.117188 85.285156 116.628906 89.527344 C 112.039062 93.84375 109.707031 100.835938 109.707031 110.261719 C 109.707031 115.0625 110.4375 119.65625 111.898438 124.003906 L 111.933594 124.109375 C 114.402344 131.484375 121.292969 136.425781 129.085938 136.425781 L 192.367188 136.425781 L 148.148438 227.050781 C 144.425781 234.460938 141.4375 240.964844 139.242188 246.324219 C 136.878906 252.132812 135.660156 257.664062 135.660156 262.777344 C 135.660156 273.496094 139.453125 281.21875 146.898438 285.707031 C 153.648438 289.777344 162.378906 291.863281 172.886719 291.863281 L 180.609375 291.863281 C 187.460938 291.863281 193.65625 287.828125 196.4375 281.566406 L 260.695312 136.078125 C 262.328125 132.320312 263.546875 128.421875 264.242188 124.5625 C 264.9375 120.734375 265.285156 116.941406 265.285156 113.21875 C 265.25 106.019531 263.511719 99.894531 260.03125 94.886719 Z M 255.441406 122.960938 C 254.847656 126.160156 253.875 129.398438 252.519531 132.492188 L 188.261719 277.949219 C 186.90625 281.007812 183.878906 282.957031 180.574219 282.957031 L 172.886719 282.957031 C 164.015625 282.957031 156.8125 281.320312 151.488281 278.085938 C 146.828125 275.234375 144.53125 270.222656 144.53125 262.746094 C 144.53125 258.8125 145.507812 254.394531 147.453125 249.664062 C 149.578125 244.480469 152.464844 238.21875 156.082031 230.945312 L 201.378906 138.199219 C 202.492188 135.902344 202.351562 133.222656 200.996094 131.03125 C 199.636719 128.839844 197.308594 127.554688 194.734375 127.554688 L 129.085938 127.554688 C 125.121094 127.554688 121.605469 125.046875 120.351562 121.289062 L 120.320312 121.1875 C 119.171875 117.777344 118.578125 114.089844 118.578125 110.261719 C 118.578125 103.339844 119.96875 98.539062 122.683594 95.964844 C 125.535156 93.285156 129.085938 91.964844 133.609375 91.964844 L 237.453125 91.964844 C 243.542969 91.964844 249.246094 94.921875 252.65625 99.789062 L 252.761719 99.929688 C 255.128906 103.375 256.34375 107.828125 256.34375 113.148438 C 256.34375 116.386719 256.066406 119.65625 255.441406 122.960938 Z M 255.441406 122.960938 " fill-opacity="1" fill-rule="nonzero"/></g></svg>
