<svg xmlns="http://www.w3.org/2000/svg" xmlns:xlink="http://www.w3.org/1999/xlink" width="500" zoomAndPan="magnify" viewBox="0 0 375 374.999991" height="500" preserveAspectRatio="xMidYMid meet" version="1.0"><defs><clipPath id="b8d34397b7"><path d="M 5.886719 5.886719 L 369.113281 5.886719 L 369.113281 369.113281 L 5.886719 369.113281 Z M 5.886719 5.886719 " clip-rule="nonzero"/></clipPath><clipPath id="e5c27feb51"><path d="M 187.5 5.886719 C 87.195312 5.886719 5.886719 87.195312 5.886719 187.5 C 5.886719 287.804688 87.195312 369.113281 187.5 369.113281 C 287.804688 369.113281 369.113281 287.804688 369.113281 187.5 C 369.113281 87.195312 287.804688 5.886719 187.5 5.886719 Z M 187.5 5.886719 " clip-rule="nonzero"/></clipPath></defs><g clip-path="url(#b8d34397b7)"><g clip-path="url(#e5c27feb51)"><path fill="#ffe1be" d="M 5.886719 5.886719 L 369.113281 5.886719 L 369.113281 369.113281 L 5.886719 369.113281 Z M 5.886719 5.886719 " fill-opacity="1" fill-rule="nonzero"/></g></g><path fill="#f25700" d="M 257.792969 144.261719 C 260.492188 140.726562 263.324219 137.023438 266.261719 133.175781 C 289.375 162.496094 293.664062 219.925781 252.460938 257.960938 C 214.414062 293.074219 154.683594 291.589844 118.308594 254.648438 C 81.710938 217.480469 81.332031 158.210938 117.238281 120.621094 C 154.210938 81.921875 212.710938 83.160156 246.179688 111.449219 C 242.875 114.386719 239.566406 117.332031 235.65625 120.808594 C 215.910156 106.484375 192.632812 101.667969 167.601562 107.480469 C 148.574219 111.90625 133.03125 122.34375 121.34375 138.085938 C 97.300781 170.46875 99.910156 214.257812 127.449219 243.28125 C 154.992188 272.3125 198.542969 277.257812 232.28125 255.535156 C 260.039062 237.660156 284.238281 194.042969 257.792969 144.261719 Z M 257.792969 144.261719 " fill-opacity="1" fill-rule="nonzero"/><path fill="#f25700" d="M 172 194.511719 C 183.511719 183.339844 194.617188 172.851562 205.390625 162.03125 C 226.960938 140.378906 248.34375 118.539062 269.820312 96.789062 C 271.15625 95.4375 272.503906 94.046875 274.046875 92.96875 C 276.511719 91.246094 279.105469 91.613281 281.324219 93.460938 C 283.789062 95.515625 284.507812 98.246094 283.144531 101.191406 C 282.457031 102.675781 281.289062 103.953125 280.273438 105.277344 C 246.523438 149.199219 212.769531 193.113281 179.015625 237.027344 C 178.433594 237.785156 177.886719 238.570312 177.257812 239.289062 C 172.652344 244.542969 168.539062 244.425781 164.597656 238.511719 C 157.976562 228.582031 151.613281 218.484375 145.144531 208.449219 C 140.359375 201.027344 135.429688 193.691406 130.839844 186.144531 C 126.699219 179.335938 128.503906 171.828125 134.804688 168.050781 C 139.890625 165.007812 144.433594 165.636719 148.925781 170.3125 C 155.871094 177.546875 162.6875 184.902344 169.574219 192.191406 C 170.378906 193.046875 171.269531 193.820312 172 194.511719 Z M 172 194.511719 " fill-opacity="1" fill-rule="nonzero"/></svg>